<?xml version="1.0" standalone="no"?>
<!DOCTYPE svg PUBLIC "-//W3C//DTD SVG 20010904//EN"
 "http://www.w3.org/TR/2001/REC-SVG-20010904/DTD/svg10.dtd">
<svg version="1.0" xmlns="http://www.w3.org/2000/svg"
 width="500.000000pt" height="500.000000pt" viewBox="0 0 500.000000 500.000000"
 preserveAspectRatio="xMidYMid meet">

<g transform="translate(0.000000,500.000000) scale(0.100000,-0.100000)"
fill="#000000" stroke="none">
<path d="M2 2633 c2 -1303 4 -2115 5 -1805 l3 562 135 0 135 0 0 -560 0 -560
555 0 555 0 0 -135 0 -135 140 0 140 0 0 135 0 135 135 0 135 0 0 -135 0 -135
140 0 140 0 0 135 0 135 695 0 695 0 0 -135 0 -135 415 0 415 0 0 135 0 135
140 0 140 0 0 -135 0 -135 140 0 140 0 -2 2368 c-2 1302 -4 2112 -5 1800 l-3
-568 -135 0 -135 0 0 565 0 565 -555 0 -555 0 0 135 0 135 -140 0 -140 0 0
-135 0 -135 -135 0 -135 0 0 135 0 135 -140 0 -140 0 0 -135 0 -135 -695 0
-695 0 0 135 0 135 -415 0 -415 0 0 -135 0 -135 -140 0 -140 0 0 135 0 135
-140 0 -140 0 2 -2367z m278 1947 l0 -140 -135 0 -135 0 0 140 0 140 135 0
135 0 0 -140z m917 -304 c36 -30 53 -84 53 -162 0 -119 -42 -184 -120 -184
-78 0 -120 65 -120 185 0 33 5 77 10 97 23 81 117 115 177 64z m294 7 c31 -19
59 -76 59 -123 0 -85 -91 -220 -148 -220 -28 0 -27 1 23 53 29 29 57 68 63 86
l11 32 -26 -21 c-55 -43 -145 -7 -159 65 -19 104 87 181 177 128z m-621 -148
l0 -155 45 0 c38 0 45 -3 45 -20 0 -19 -7 -20 -120 -20 -113 0 -120 1 -120 20
0 17 7 20 50 20 l50 0 0 137 0 137 -43 -42 c-48 -47 -52 -49 -61 -25 -5 11 7
30 36 60 35 36 49 43 80 43 l38 0 0 -155z m-590 -1220 l0 -695 -135 0 -135 0
0 695 0 695 135 0 135 0 0 -695z m4710 270 l0 -135 -135 0 -135 0 0 135 0 135
135 0 135 0 0 -135z m-3176 -345 c136 -259 251 -470 255 -470 3 0 119 212 256
470 l250 470 138 0 137 0 0 -875 0 -875 -105 0 -105 0 -2 738 -3 737 -64 -125
c-64 -126 -474 -880 -496 -912 -10 -15 -45 42 -237 395 -124 226 -252 464
-284 527 l-59 115 -3 -737 -2 -738 -105 0 -105 0 0 875 0 875 143 0 142 0 249
-470z m1756 190 l0 -180 140 0 140 0 0 -90 0 -90 -140 0 -140 0 0 -465 0 -465
130 0 130 0 0 -90 0 -90 -155 0 c-201 0 -240 14 -289 105 -21 39 -21 51 -24
523 l-3 482 -104 0 -105 0 0 90 0 90 74 0 c89 0 134 14 147 47 5 13 9 89 9
169 l0 144 95 0 95 0 0 -180z m1420 -955 l0 -695 -135 0 -135 0 0 695 0 695
135 0 135 0 0 -695z m-4710 -270 l0 -135 -135 0 -135 0 0 135 0 135 135 0 135
0 0 -135z m1715 -750 c0 -13 -8 -21 -22 -23 -19 -3 -23 1 -23 23 0 22 4 26 23
23 14 -2 22 -10 22 -23z m1030 0 c0 -13 -8 -21 -22 -23 -19 -3 -23 1 -23 23 0
22 4 26 23 23 14 -2 22 -10 22 -23z m-1641 -92 l48 -97 51 97 c46 87 54 97 79
97 l28 0 0 -175 c0 -168 -1 -175 -20 -175 -19 0 -20 7 -20 148 l0 147 -51 -95
c-28 -52 -55 -101 -59 -109 -5 -9 -25 20 -63 90 l-57 104 0 -142 0 -143 -25 0
-25 0 0 175 0 175 33 0 c31 0 34 -4 81 -97z m746 42 c0 -32 2 -35 30 -35 23 0
30 -4 30 -20 0 -16 -7 -20 -30 -20 l-30 0 0 -90 c0 -89 0 -90 25 -90 19 0 25
-5 25 -21 0 -18 -5 -20 -42 -17 l-43 3 -3 108 c-3 106 -3 107 -27 107 -33 0
-35 37 -2 42 17 2 23 11 25 36 2 24 8 32 23 32 15 0 19 -7 19 -35z m-292 -51
c29 -20 52 -66 52 -104 l0 -30 -90 0 c-75 0 -90 -3 -90 -16 0 -54 71 -82 119
-46 30 22 56 16 45 -12 -9 -24 -57 -46 -100 -46 -75 0 -131 95 -105 180 23 76
111 115 169 74z m152 -114 c0 -123 -1 -130 -20 -130 -19 0 -20 7 -20 130 0
123 1 130 20 130 19 0 20 -7 20 -130z m300 108 l0 -21 23 21 c27 26 73 29 104
7 29 -21 43 -73 43 -167 0 -77 0 -78 -25 -78 -25 0 -25 0 -25 94 0 103 -10
126 -56 126 -49 0 -64 -31 -64 -130 0 -83 -1 -90 -20 -90 -19 0 -20 7 -20 130
0 123 1 130 20 130 14 0 20 -7 20 -22z m398 6 c29 -20 52 -66 52 -104 l0 -30
-90 0 c-75 0 -90 -3 -90 -16 0 -54 71 -82 119 -46 30 22 56 16 45 -12 -9 -24
-57 -46 -100 -46 -75 0 -131 95 -105 180 23 76 111 115 169 74z m152 -6 l0
-21 23 21 c30 29 77 30 77 2 0 -16 -7 -20 -30 -20 -55 0 -70 -28 -70 -130 0
-83 -1 -90 -20 -90 -19 0 -20 7 -20 130 0 123 1 130 20 130 14 0 20 -7 20 -22z
m180 -108 c0 -123 -1 -130 -20 -130 -19 0 -20 7 -20 130 0 123 1 130 20 130
19 0 20 -7 20 -130z m120 35 c0 -82 3 -98 20 -115 24 -24 48 -25 78 -4 20 14
22 23 22 115 0 92 1 99 20 99 19 0 20 -7 20 -130 0 -123 -1 -130 -20 -130 -11
0 -20 7 -20 15 0 12 -4 11 -20 -5 -20 -20 -63 -26 -95 -14 -32 13 -45 59 -45
164 0 93 1 100 20 100 19 0 20 -7 20 -95z m280 73 l0 -21 23 21 c32 30 82 29
109 -1 l21 -23 23 23 c15 15 35 23 56 23 68 -1 88 -40 88 -171 0 -88 0 -89
-25 -89 l-25 0 0 100 c0 98 -1 101 -26 112 -21 10 -31 9 -52 -3 -26 -14 -27
-18 -30 -112 -2 -89 -4 -97 -22 -97 -18 0 -20 7 -20 88 0 98 -14 132 -56 132
-49 0 -64 -31 -64 -130 0 -83 -1 -90 -20 -90 -19 0 -20 7 -20 130 0 123 1 130
20 130 14 0 20 -7 20 -22z m1570 -538 l0 -140 -135 0 -135 0 0 140 0 140 135
0 135 0 0 -140z"/>
<path d="M1082 4236 c-40 -51 -40 -191 0 -241 27 -35 73 -31 102 8 31 41 31
183 0 224 -29 39 -75 43 -102 9z"/>
<path d="M1380 4240 c-45 -45 -13 -130 50 -130 41 0 70 31 70 75 0 44 -29 75
-70 75 -17 0 -39 -9 -50 -20z"/>
<path d="M1750 923 c-19 -7 -40 -33 -40 -50 0 -9 19 -13 70 -13 77 0 84 7 45
45 -23 24 -44 29 -75 18z"/>
<path d="M2600 923 c-19 -7 -40 -33 -40 -50 0 -9 19 -13 70 -13 77 0 84 7 45
45 -23 24 -44 29 -75 18z"/>
</g>
</svg>
